<svg width="297" height="297" viewBox="0 0 297 297" fill="none" xmlns="http://www.w3.org/2000/svg">
<path d="M165.12 24.7496C160.446 37.9656 159.61 52.2345 162.707 65.906C165.804 79.5775 172.707 92.093 182.62 102.005C192.532 111.917 205.047 118.821 218.719 121.918C232.39 125.015 246.659 124.178 259.875 119.505V259.875C259.875 263.157 258.571 266.304 256.25 268.625C253.93 270.946 250.782 272.25 247.5 272.25H80.4375C68.9503 272.25 57.9336 267.686 49.8109 259.564C41.6883 251.441 37.125 240.424 37.125 228.937V61.8746C37.125 52.0285 41.0364 42.5856 47.9987 35.6233C54.9609 28.661 64.4038 24.7496 74.25 24.7496H165.12ZM80.4375 210.375C75.5144 210.375 70.793 212.33 67.3118 215.812C63.8307 219.293 61.875 224.014 61.875 228.937C61.875 233.86 63.8307 238.582 67.3118 242.063C70.793 245.544 75.5144 247.5 80.4375 247.5H235.125V210.375H80.4375ZM229.309 4.08339C229.777 2.92483 230.581 1.93263 231.618 1.23399C232.654 0.535352 233.875 0.162109 235.125 0.162109C236.375 0.162109 237.596 0.535352 238.632 1.23399C239.669 1.93263 240.473 2.92483 240.941 4.08339L244.085 11.6321C249.338 24.4412 259.303 34.7478 271.928 40.4288L280.813 44.3888C281.95 44.9144 282.911 45.7542 283.586 46.809C284.26 47.8637 284.618 49.0894 284.618 50.3411C284.618 51.5929 284.26 52.8185 283.586 53.8733C282.911 54.928 281.95 55.7678 280.813 56.2935L271.408 60.4763C259.1 65.9996 249.307 75.9336 243.961 88.32L240.904 95.3243C240.428 96.4648 239.626 97.4391 238.597 98.1244C237.569 98.8097 236.361 99.1754 235.125 99.1754C233.889 99.1754 232.681 98.8097 231.653 98.1244C230.624 97.4391 229.822 96.4648 229.346 95.3243L226.302 88.3324C220.952 75.9369 211.149 65.9975 198.829 60.4763L189.424 56.2935C188.285 55.7693 187.319 54.9294 186.643 53.8733C185.966 52.8172 185.606 51.5892 185.606 50.335C185.606 49.0807 185.966 47.8527 186.643 46.7966C187.319 45.7405 188.285 44.9006 189.424 44.3764L198.309 40.4164C210.932 34.7469 220.902 24.4542 226.165 11.6569L229.309 4.08339Z" fill="white"/>
</svg>
